<svg width="261" height="529" viewBox="0 0 261 529" fill="none" xmlns="http://www.w3.org/2000/svg">
<rect x="1" y="133" width="240" height="396" fill="white"/>
<path d="M73 491H89V493H73V491Z" fill="white"/>
<path d="M89 492H73V494H89V492Z" fill="#A39890"/>
<mask id="path-4-inside-1_241_956" fill="white">
<path d="M113 503H129V505H113V503Z"/>
</mask>
<path d="M113 503H129V505H113V503Z" fill="white"/>
<path d="M129 503H113V507H129V503Z" fill="#A39890" mask="url(#path-4-inside-1_241_956)"/>
<path d="M241 429V389H261V429H241Z" fill="white"/>
<path d="M241 390H261V388H241V390ZM261 428H241V430H261V428Z" fill="#A39890"/>
<path d="M241 125L169 125L169 389H241L241 125Z" fill="white"/>
<path d="M170 125L170 389H168L168 125H170ZM240 389L240 125H242L242 389H240Z" fill="#A39890"/>
<path fill-rule="evenodd" clip-rule="evenodd" d="M113 461H89V493V505H113V493V461Z" fill="#A39890"/>
<path fill-rule="evenodd" clip-rule="evenodd" d="M225 497H145V502.818H225V497ZM225 502.818H145V505H225V502.818Z" fill="#A39890"/>
<path fill-rule="evenodd" clip-rule="evenodd" d="M1 1H97H169V53.5H241V141H169V176H104H97H89V421H1V1Z" fill="white"/>
<path d="M1 1V0C0.447715 0 0 0.447715 0 1L1 1ZM169 1H170C170 0.447715 169.552 0 169 0V1ZM169 53.5H168C168 54.0523 168.448 54.5 169 54.5V53.5ZM241 53.5H242C242 52.9477 241.552 52.5 241 52.5V53.5ZM241 141V142C241.552 142 242 141.552 242 141H241ZM169 141V140C168.448 140 168 140.448 168 141H169ZM169 176V177C169.552 177 170 176.552 170 176H169ZM89 176V175C88.4477 175 88 175.448 88 176H89ZM89 421V422C89.5523 422 90 421.552 90 421H89ZM1 421H0C0 421.552 0.447715 422 1 422L1 421ZM97 0H1V2H97V0ZM169 0H97V2H169V0ZM170 53.5V1H168V53.5H170ZM241 52.5H169V54.5H241V52.5ZM242 141V53.5H240V141H242ZM169 142H241V140H169V142ZM170 176V141H168V176H170ZM104 177H169V175H104V177ZM104 175H97V177H104V175ZM97 175H89V177H97V175ZM88 176V421H90V176H88ZM1 422H89V420H1V422ZM0 1V421H2V1H0Z" fill="#A39890"/>
<rect x="1" y="421" width="72" height="72" fill="white" stroke="#A39890" stroke-width="2" stroke-linejoin="round"/>
<path d="M166.77 511.368H173.786V511.888H171.138V512.44H172.082C172.215 512.44 172.356 512.456 172.506 512.488C172.66 512.515 172.802 512.571 172.93 512.656C173.063 512.741 173.172 512.861 173.258 513.016C173.343 513.165 173.386 513.36 173.386 513.6C173.386 513.84 173.343 514.035 173.258 514.184C173.172 514.339 173.063 514.459 172.93 514.544C172.802 514.629 172.66 514.685 172.506 514.712C172.356 514.744 172.215 514.76 172.082 514.76H168.482C168.348 514.76 168.204 514.744 168.05 514.712C167.9 514.685 167.759 514.629 167.626 514.544C167.498 514.459 167.391 514.339 167.306 514.184C167.22 514.035 167.178 513.84 167.178 513.6C167.178 513.36 167.22 513.165 167.306 513.016C167.391 512.861 167.498 512.741 167.626 512.656C167.759 512.571 167.9 512.515 168.05 512.488C168.204 512.456 168.348 512.44 168.482 512.44H169.498V511.888H166.77V511.368ZM167.186 508.44H173.394V508.96H171.138V509.248L173.538 510.992H171.338L169.714 509.768L167.986 510.992H167.098L169.498 509.248V508.96H167.186V508.44ZM171.746 513.6C171.746 513.413 171.698 513.261 171.602 513.144C171.506 513.021 171.338 512.96 171.098 512.96H169.466C169.226 512.96 169.058 513.021 168.962 513.144C168.866 513.261 168.818 513.413 168.818 513.6C168.818 513.787 168.866 513.939 168.962 514.056C169.058 514.179 169.226 514.24 169.466 514.24H171.098C171.338 514.24 171.506 514.179 171.602 514.056C171.698 513.939 171.746 513.787 171.746 513.6ZM178.393 510.976C178.393 511.237 178.353 511.459 178.273 511.64C178.198 511.816 178.078 511.957 177.913 512.064C177.748 512.171 177.534 512.248 177.273 512.296C177.017 512.344 176.708 512.368 176.345 512.368C175.982 512.368 175.67 512.344 175.409 512.296C175.153 512.248 174.942 512.171 174.777 512.064C174.612 511.957 174.489 511.816 174.409 511.64C174.334 511.459 174.297 511.237 174.297 510.976V509.752C174.297 509.491 174.334 509.272 174.409 509.096C174.489 508.915 174.612 508.771 174.777 508.664C174.942 508.557 175.153 508.48 175.409 508.432C175.67 508.384 175.982 508.36 176.345 508.36C176.708 508.36 177.017 508.384 177.273 508.432C177.534 508.48 177.748 508.557 177.913 508.664C178.078 508.771 178.198 508.915 178.273 509.096C178.353 509.272 178.393 509.491 178.393 509.752V510.976ZM180.665 513.72C180.665 513.96 180.622 514.149 180.537 514.288C180.452 514.427 180.342 514.531 180.209 514.6C180.081 514.669 179.94 514.712 179.785 514.728C179.636 514.749 179.494 514.76 179.361 514.76H175.761C175.628 514.76 175.484 514.749 175.329 514.728C175.18 514.712 175.038 514.669 174.905 514.6C174.777 514.531 174.67 514.427 174.585 514.288C174.5 514.149 174.457 513.96 174.457 513.72C174.457 513.48 174.5 513.291 174.585 513.152C174.67 513.013 174.777 512.909 174.905 512.84C175.038 512.771 175.18 512.728 175.329 512.712C175.484 512.691 175.628 512.68 175.761 512.68H179.361C179.494 512.68 179.636 512.691 179.785 512.712C179.94 512.728 180.081 512.771 180.209 512.84C180.342 512.909 180.452 513.013 180.537 513.152C180.622 513.291 180.665 513.48 180.665 513.72ZM178.945 508.44H180.585V510.08H181.273V510.6H180.585V512.368H178.945V508.44ZM179.025 513.72C179.025 513.533 178.977 513.4 178.881 513.32C178.785 513.24 178.617 513.2 178.377 513.2H176.745C176.505 513.2 176.337 513.24 176.241 513.32C176.145 513.4 176.097 513.533 176.097 513.72C176.097 513.907 176.145 514.04 176.241 514.12C176.337 514.2 176.505 514.24 176.745 514.24H178.377C178.617 514.24 178.785 514.2 178.881 514.12C178.977 514.04 179.025 513.907 179.025 513.72ZM176.753 509.52C176.753 509.285 176.726 509.12 176.673 509.024C176.62 508.928 176.51 508.88 176.345 508.88C176.18 508.88 176.07 508.928 176.017 509.024C175.964 509.115 175.937 509.277 175.937 509.512V511.208C175.937 511.443 175.964 511.608 176.017 511.704C176.07 511.8 176.18 511.848 176.345 511.848C176.51 511.848 176.62 511.8 176.673 511.704C176.726 511.608 176.753 511.443 176.753 511.208V509.52ZM183.616 508.96V511.896L188.104 511.656V512.176L185.856 512.296V513.928H188.504V514.448H181.488V513.928H184.216V512.384L181.976 512.504V508.44H188.024V508.96H183.616ZM190.568 511.856L189.544 514.768H188.864L190.224 510.92V508.44H191.864V510.92L193.304 514.768H191.664L190.568 511.856ZM192.616 510.88H193.824V508.44H195.464V514.768H193.824V511.4H192.616V510.88ZM201.023 508.44H202.663V510.48H203.351V511H202.663V513.568H201.023V508.44ZM196.375 508.96V508.44H200.471V509.552L200.135 511.568H198.575L198.911 509.552V508.96H196.375ZM202.735 514.768H196.455V512.68H198.095V514.248H202.735V514.768ZM196.215 511.848H196.839V509.8H198.319V511.848H200.631V512.368H196.215V511.848ZM169.224 516.44H170.568V519.12H170.92V516.44H172.264V522.768H170.92V519.64H170.568V522.768H169.224V516.44ZM167.296 522.016L169.032 521.792V522.32L165.816 522.768V516.44H167.296V522.016ZM175.136 517.6H177.904V516.44H179.544V519.784H177.904V519.552L173.496 519.784V516.44H175.136V517.6ZM173.008 520.408H180.024V520.928H177.376V522.768H175.736V520.928H173.008V520.408ZM175.136 519.176L177.904 519.032V518.12H175.136V519.176ZM182.625 516.44H187.065V516.96H185.625V517.64L187.065 520.368H185.425L184.329 518.336L183.305 520.368H182.625L183.985 517.64V516.96H182.625V516.44ZM187.585 516.44H189.225V521.568H187.585V516.44ZM189.297 522.768H182.857V520.68H184.497V522.248H189.297V522.768ZM192.017 520.92H194.945V520.2H196.585V522.768H194.945V522.528L190.377 522.768V520.2H192.017V520.92ZM194.233 518.416C194.233 518.677 194.193 518.899 194.113 519.08C194.038 519.256 193.918 519.397 193.753 519.504C193.587 519.611 193.374 519.688 193.113 519.736C192.857 519.784 192.547 519.808 192.185 519.808C191.822 519.808 191.51 519.784 191.249 519.736C190.993 519.688 190.782 519.611 190.617 519.504C190.451 519.397 190.329 519.256 190.249 519.08C190.174 518.899 190.137 518.677 190.137 518.416V517.752C190.137 517.491 190.174 517.272 190.249 517.096C190.329 516.915 190.451 516.771 190.617 516.664C190.782 516.557 190.993 516.48 191.249 516.432C191.51 516.384 191.822 516.36 192.185 516.36C192.547 516.36 192.857 516.384 193.113 516.432C193.374 516.48 193.587 516.557 193.753 516.664C193.918 516.771 194.038 516.915 194.113 517.096C194.193 517.272 194.233 517.491 194.233 517.752V518.416ZM194.945 516.44H196.585V519.808H194.945V516.44ZM192.017 522.16L194.945 522.008V521.44H192.017V522.16ZM192.593 517.52C192.593 517.285 192.566 517.12 192.513 517.024C192.459 516.928 192.35 516.88 192.185 516.88C192.019 516.88 191.91 516.928 191.857 517.024C191.803 517.115 191.777 517.277 191.777 517.512V518.648C191.777 518.883 191.803 519.048 191.857 519.144C191.91 519.24 192.019 519.288 192.185 519.288C192.35 519.288 192.459 519.24 192.513 519.144C192.566 519.048 192.593 518.883 192.593 518.648V517.52ZM203.936 520.176L201.696 520.296V521.928H204.344V522.448H197.328V521.928H200.056V520.384L197.816 520.504V518.096H202.224V516.968H197.816V516.448H203.864V518.616H199.456V519.888L203.936 519.656V520.176Z" fill="black"/>
<path d="M222.611 405.664H224.251V411.568H222.611V405.664ZM226.912 408.272H230.296V408.792H226.912V411.576H225.272V405.672H230.288V406.192H226.912V408.272ZM233.326 406.248V405.664H238.094V406.184L234.918 410.984H238.19V411.568H233.23V411.064L236.302 406.248H233.326ZM244.272 410.616C244.272 410.787 244.262 410.933 244.24 411.056C244.224 411.179 244.184 411.277 244.12 411.352C244.056 411.427 243.96 411.48 243.832 411.512C243.71 411.549 243.544 411.568 243.336 411.568H239.864C239.656 411.568 239.488 411.549 239.36 411.512C239.238 411.48 239.144 411.427 239.08 411.352C239.016 411.277 238.974 411.179 238.952 411.056C238.936 410.933 238.928 410.787 238.928 410.616V406.616C238.928 406.445 238.936 406.301 238.952 406.184C238.974 406.061 239.016 405.96 239.08 405.88C239.144 405.805 239.238 405.752 239.36 405.72C239.488 405.683 239.656 405.664 239.864 405.664H243.336C243.544 405.664 243.71 405.683 243.832 405.72C243.96 405.752 244.056 405.805 244.12 405.88C244.184 405.96 244.224 406.061 244.24 406.184C244.262 406.301 244.272 406.445 244.272 406.616V410.616ZM240.576 410.848C240.576 410.923 240.587 410.973 240.608 411C240.635 411.032 240.686 411.048 240.76 411.048H242.448C242.523 411.048 242.571 411.032 242.592 411C242.619 410.973 242.632 410.923 242.632 410.848V406.384C242.632 406.309 242.619 406.259 242.592 406.232C242.571 406.2 242.523 406.184 242.448 406.184H240.76C240.686 406.184 240.635 406.2 240.608 406.232C240.587 406.259 240.576 406.309 240.576 406.384V410.848ZM250.595 405.664V411.568H249.067L246.699 406.88V411.568H245.251V405.664H246.819L249.155 410.248V405.664H250.595ZM256.577 411.576H251.561V405.672H256.577V406.192H253.201V408.28H256.585V408.8H253.201V411.056H256.577V411.576Z" fill="black"/>
<path d="M148.5 488.625L153 484.125L157.5 488.625M153 484.75V493.875" stroke="black" stroke-width="1.5" stroke-linecap="round" stroke-linejoin="round"/>
<path d="M211.5 488.625L216 484.125L220.5 488.625M216 484.75V493.875" stroke="black" stroke-width="1.5" stroke-linecap="round" stroke-linejoin="round"/>
<path d="M169.5 488.625L174 484.125L178.5 488.625M174 484.75V493.875" stroke="black" stroke-width="1.5" stroke-linecap="round" stroke-linejoin="round"/>
<path d="M190.5 488.625L195 484.125L199.5 488.625M195 484.75V493.875" stroke="black" stroke-width="1.5" stroke-linecap="round" stroke-linejoin="round"/>
<mask id="path-21-outside-2_241_956" maskUnits="userSpaceOnUse" x="170" y="343" width="26" height="42" fill="black">
<rect fill="white" x="170" y="343" width="26" height="42"/>
<path d="M194 345H170V385H194V345Z"/>
</mask>
<path d="M194 345H170V385H194V345Z" fill="#F0F0F0"/>
<path d="M194 345V343C195.105 343 196 343.895 196 345H194ZM194 347H170V343H194V347ZM192 385V345H196V385H192Z" fill="#A39890" mask="url(#path-21-outside-2_241_956)"/>
<line x1="174.5" y1="349.5" x2="189.5" y2="349.5" stroke="#A39890" stroke-linecap="round"/>
<line x1="174.5" y1="379.5" x2="189.5" y2="379.5" stroke="#A39890" stroke-linecap="round"/>
<line x1="174.5" y1="355.5" x2="189.5" y2="355.5" stroke="#A39890" stroke-linecap="round"/>
<line x1="174.5" y1="361.5" x2="189.5" y2="361.5" stroke="#A39890" stroke-linecap="round"/>
<line x1="174.5" y1="367.5" x2="189.5" y2="367.5" stroke="#A39890" stroke-linecap="round"/>
<line x1="174.5" y1="373.5" x2="189.5" y2="373.5" stroke="#A39890" stroke-linecap="round"/>
<rect x="93" y="197" width="20" height="20" fill="#306ED4"/>
<rect x="93" y="218" width="20" height="20" fill="#306ED4"/>
<rect x="93" y="239" width="20" height="20" fill="#306ED4"/>
<rect x="93" y="260" width="20" height="20" fill="#306ED4"/>
<rect x="93" y="281" width="20" height="20" fill="#306ED4"/>
<rect x="93" y="302" width="20" height="20" fill="#306ED4"/>
<rect x="93" y="323" width="20" height="20" fill="#306ED4"/>
<rect x="93" y="344" width="20" height="20" fill="#306ED4"/>
<rect x="93" y="365" width="20" height="20" fill="#306ED4"/>
<rect x="145" y="197" width="20" height="20" fill="#414575"/>
<rect x="145" y="218" width="20" height="20" fill="#414575"/>
<rect x="145" y="239" width="20" height="20" fill="#414575"/>
<rect x="145" y="260" width="20" height="20" fill="#414575"/>
<rect x="145" y="281" width="20" height="20" fill="#414575"/>
<rect x="145" y="302" width="20" height="20" fill="#414575"/>
<rect x="145" y="323" width="20" height="20" fill="#414575"/>
<rect x="145" y="344" width="20" height="20" fill="#414575"/>
<rect x="145" y="365" width="20" height="20" fill="#414575"/>
<path d="M100.015 208.52H97.8366L97.5306 209.426H96.3726L97.9746 205.004H99.2106L100.843 209.426H100.357L100.015 208.52ZM97.9686 208.13H99.8646L98.8626 205.478L97.9686 208.13ZM105.044 208.712C105.044 208.84 105.036 208.95 105.02 209.042C105.008 209.134 104.978 209.208 104.93 209.264C104.882 209.32 104.81 209.36 104.714 209.384C104.622 209.412 104.498 209.426 104.342 209.426H101.978C101.822 209.426 101.696 209.412 101.6 209.384C101.508 209.36 101.438 209.32 101.39 209.264C101.342 209.208 101.31 209.134 101.294 209.042C101.282 208.95 101.276 208.84 101.276 208.712V205.712C101.276 205.584 101.282 205.476 101.294 205.388C101.31 205.296 101.342 205.22 101.39 205.16C101.438 205.104 101.508 205.064 101.6 205.04C101.696 205.012 101.822 204.998 101.978 204.998H104.342C104.498 204.998 104.622 205.012 104.714 205.04C104.81 205.064 104.882 205.104 104.93 205.16C104.978 205.22 105.008 205.296 105.02 205.388C105.036 205.476 105.044 205.584 105.044 205.712V208.712ZM102.512 208.886C102.512 208.942 102.52 208.98 102.536 209C102.556 209.024 102.594 209.036 102.65 209.036H103.676C103.732 209.036 103.768 209.024 103.784 209C103.804 208.98 103.814 208.942 103.814 208.886V205.538C103.814 205.482 103.804 205.444 103.784 205.424C103.768 205.4 103.732 205.388 103.676 205.388H102.65C102.594 205.388 102.556 205.4 102.536 205.424C102.52 205.444 102.512 205.482 102.512 205.538V208.886ZM107.963 209.036C108.055 209.036 108.117 209.02 108.149 208.988C108.181 208.956 108.197 208.894 108.197 208.802V207.548H106.109C105.929 207.548 105.809 207.514 105.749 207.446C105.689 207.378 105.659 207.268 105.659 207.116V205.67C105.659 205.55 105.665 205.448 105.677 205.364C105.693 205.276 105.723 205.204 105.767 205.148C105.811 205.096 105.877 205.058 105.965 205.034C106.053 205.01 106.169 204.998 106.313 204.998H108.779C108.923 204.998 109.037 205.01 109.121 205.034C109.209 205.058 109.277 205.096 109.325 205.148C109.369 205.204 109.397 205.276 109.409 205.364C109.421 205.448 109.427 205.55 109.427 205.67V208.754C109.427 208.874 109.421 208.976 109.409 209.06C109.397 209.148 109.369 209.22 109.325 209.276C109.277 209.328 109.209 209.366 109.121 209.39C109.037 209.414 108.923 209.426 108.779 209.426H106.307C106.163 209.426 106.047 209.414 105.959 209.39C105.875 209.366 105.811 209.328 105.767 209.276C105.719 209.22 105.689 209.148 105.677 209.06C105.665 208.976 105.659 208.874 105.659 208.754V208.148H106.889V208.802C106.889 208.894 106.905 208.956 106.937 208.988C106.969 209.02 107.031 209.036 107.123 209.036H107.963ZM107.963 205.388H107.117C107.025 205.388 106.963 205.404 106.931 205.436C106.903 205.468 106.889 205.53 106.889 205.622V207.158H108.197V205.622C108.197 205.53 108.181 205.468 108.149 205.436C108.117 205.404 108.055 205.388 107.963 205.388Z" fill="white"/>
<path d="M99.9854 229.52H97.8074L97.5014 230.426H96.3434L97.9454 226.004H99.1814L100.813 230.426H100.327L99.9854 229.52ZM97.9394 229.13H99.8354L98.8334 226.478L97.9394 229.13ZM105.014 229.712C105.014 229.84 105.006 229.95 104.99 230.042C104.978 230.134 104.948 230.208 104.9 230.264C104.852 230.32 104.78 230.36 104.684 230.384C104.592 230.412 104.468 230.426 104.312 230.426H101.948C101.792 230.426 101.666 230.412 101.57 230.384C101.478 230.36 101.408 230.32 101.36 230.264C101.312 230.208 101.28 230.134 101.264 230.042C101.252 229.95 101.246 229.84 101.246 229.712V226.712C101.246 226.584 101.252 226.476 101.264 226.388C101.28 226.296 101.312 226.22 101.36 226.16C101.408 226.104 101.478 226.064 101.57 226.04C101.666 226.012 101.792 225.998 101.948 225.998H104.312C104.468 225.998 104.592 226.012 104.684 226.04C104.78 226.064 104.852 226.104 104.9 226.16C104.948 226.22 104.978 226.296 104.99 226.388C105.006 226.476 105.014 226.584 105.014 226.712V229.712ZM102.482 229.886C102.482 229.942 102.49 229.98 102.506 230C102.526 230.024 102.564 230.036 102.62 230.036H103.646C103.702 230.036 103.738 230.024 103.754 230C103.774 229.98 103.784 229.942 103.784 229.886V226.538C103.784 226.482 103.774 226.444 103.754 226.424C103.738 226.4 103.702 226.388 103.646 226.388H102.62C102.564 226.388 102.526 226.4 102.506 226.424C102.49 226.444 102.482 226.482 102.482 226.538V229.886ZM109.451 229.778C109.451 230.03 109.405 230.2 109.313 230.288C109.221 230.38 109.073 230.426 108.869 230.426H106.211C106.091 230.426 105.993 230.41 105.917 230.378C105.845 230.35 105.787 230.31 105.743 230.258C105.699 230.202 105.669 230.138 105.653 230.066C105.637 229.998 105.629 229.922 105.629 229.838V228.59C105.629 228.51 105.639 228.446 105.659 228.398C105.683 228.346 105.713 228.304 105.749 228.272C105.785 228.24 105.823 228.212 105.863 228.188C105.907 228.164 105.949 228.138 105.989 228.11C105.893 228.078 105.819 228.038 105.767 227.99C105.715 227.942 105.689 227.848 105.689 227.708V226.466C105.689 226.298 105.721 226.178 105.785 226.106C105.849 226.034 105.971 225.998 106.151 225.998H108.929C109.109 225.998 109.231 226.034 109.295 226.106C109.359 226.178 109.391 226.298 109.391 226.466V227.708C109.391 227.792 109.383 227.858 109.367 227.906C109.355 227.95 109.337 227.986 109.313 228.014C109.289 228.042 109.257 228.062 109.217 228.074C109.181 228.086 109.139 228.098 109.091 228.11C109.131 228.126 109.171 228.142 109.211 228.158C109.255 228.174 109.295 228.198 109.331 228.23C109.367 228.262 109.395 228.308 109.415 228.368C109.439 228.424 109.451 228.5 109.451 228.596V229.778ZM108.221 228.392C108.221 228.336 108.195 228.306 108.143 228.302H106.961C106.917 228.302 106.889 228.31 106.877 228.326C106.865 228.338 106.859 228.36 106.859 228.392V229.748C106.859 229.78 106.865 229.804 106.877 229.82C106.889 229.832 106.917 229.838 106.961 229.838H108.119C108.163 229.838 108.191 229.832 108.203 229.82C108.215 229.804 108.221 229.78 108.221 229.748V228.392ZM108.161 226.538C108.161 226.478 108.149 226.438 108.125 226.418C108.105 226.398 108.071 226.388 108.023 226.388H107.051C106.999 226.388 106.963 226.4 106.943 226.424C106.927 226.444 106.919 226.474 106.919 226.514V227.816C106.919 227.848 106.925 227.876 106.937 227.9C106.949 227.92 106.977 227.93 107.021 227.93H108.065C108.105 227.93 108.131 227.92 108.143 227.9C108.155 227.876 108.161 227.848 108.161 227.816V226.538Z" fill="white"/>
<path d="M100.196 250.52H98.0183L97.7123 251.426H96.5543L98.1563 247.004H99.3923L101.024 251.426H100.538L100.196 250.52ZM98.1503 250.13H100.046L99.0443 247.478L98.1503 250.13ZM105.225 250.712C105.225 250.84 105.217 250.95 105.201 251.042C105.189 251.134 105.159 251.208 105.111 251.264C105.063 251.32 104.991 251.36 104.895 251.384C104.803 251.412 104.679 251.426 104.523 251.426H102.159C102.003 251.426 101.877 251.412 101.781 251.384C101.689 251.36 101.619 251.32 101.571 251.264C101.523 251.208 101.491 251.134 101.475 251.042C101.463 250.95 101.457 250.84 101.457 250.712V247.712C101.457 247.584 101.463 247.476 101.475 247.388C101.491 247.296 101.523 247.22 101.571 247.16C101.619 247.104 101.689 247.064 101.781 247.04C101.877 247.012 102.003 246.998 102.159 246.998H104.523C104.679 246.998 104.803 247.012 104.895 247.04C104.991 247.064 105.063 247.104 105.111 247.16C105.159 247.22 105.189 247.296 105.201 247.388C105.217 247.476 105.225 247.584 105.225 247.712V250.712ZM102.693 250.886C102.693 250.942 102.701 250.98 102.717 251C102.737 251.024 102.775 251.036 102.831 251.036H103.857C103.913 251.036 103.949 251.024 103.965 251C103.985 250.98 103.995 250.942 103.995 250.886V247.538C103.995 247.482 103.985 247.444 103.965 247.424C103.949 247.4 103.913 247.388 103.857 247.388H102.831C102.775 247.388 102.737 247.4 102.717 247.424C102.701 247.444 102.693 247.482 102.693 247.538V250.886ZM109.356 246.998V247.478L108.15 249.572V251.3H106.92V249.41L107.994 247.442H105.732V246.998H109.356Z" fill="white"/>
<path d="M100.015 271.52H97.8366L97.5306 272.426H96.3726L97.9746 268.004H99.2106L100.843 272.426H100.357L100.015 271.52ZM97.9686 271.13H99.8646L98.8626 268.478L97.9686 271.13ZM105.044 271.712C105.044 271.84 105.036 271.95 105.02 272.042C105.008 272.134 104.978 272.208 104.93 272.264C104.882 272.32 104.81 272.36 104.714 272.384C104.622 272.412 104.498 272.426 104.342 272.426H101.978C101.822 272.426 101.696 272.412 101.6 272.384C101.508 272.36 101.438 272.32 101.39 272.264C101.342 272.208 101.31 272.134 101.294 272.042C101.282 271.95 101.276 271.84 101.276 271.712V268.712C101.276 268.584 101.282 268.476 101.294 268.388C101.31 268.296 101.342 268.22 101.39 268.16C101.438 268.104 101.508 268.064 101.6 268.04C101.696 268.012 101.822 267.998 101.978 267.998H104.342C104.498 267.998 104.622 268.012 104.714 268.04C104.81 268.064 104.882 268.104 104.93 268.16C104.978 268.22 105.008 268.296 105.02 268.388C105.036 268.476 105.044 268.584 105.044 268.712V271.712ZM102.512 271.886C102.512 271.942 102.52 271.98 102.536 272C102.556 272.024 102.594 272.036 102.65 272.036H103.676C103.732 272.036 103.768 272.024 103.784 272C103.804 271.98 103.814 271.942 103.814 271.886V268.538C103.814 268.482 103.804 268.444 103.784 268.424C103.768 268.4 103.732 268.388 103.676 268.388H102.65C102.594 268.388 102.556 268.4 102.536 268.424C102.52 268.444 102.512 268.482 102.512 268.538V271.886ZM107.123 268.388C107.031 268.388 106.969 268.404 106.937 268.436C106.905 268.468 106.889 268.53 106.889 268.622V269.876H108.977C109.157 269.876 109.277 269.91 109.337 269.978C109.397 270.046 109.427 270.156 109.427 270.308V271.754C109.427 271.874 109.419 271.976 109.403 272.06C109.391 272.148 109.363 272.22 109.319 272.276C109.275 272.328 109.209 272.366 109.121 272.39C109.033 272.414 108.917 272.426 108.773 272.426H106.307C106.163 272.426 106.047 272.414 105.959 272.39C105.875 272.366 105.811 272.328 105.767 272.276C105.719 272.22 105.689 272.148 105.677 272.06C105.665 271.976 105.659 271.874 105.659 271.754V268.67C105.659 268.55 105.665 268.448 105.677 268.364C105.689 268.276 105.719 268.204 105.767 268.148C105.811 268.096 105.875 268.058 105.959 268.034C106.047 268.01 106.163 267.998 106.307 267.998H108.779C108.923 267.998 109.037 268.01 109.121 268.034C109.209 268.058 109.277 268.096 109.325 268.148C109.369 268.204 109.397 268.276 109.409 268.364C109.421 268.448 109.427 268.55 109.427 268.67V269.276H108.197V268.622C108.197 268.53 108.181 268.468 108.149 268.436C108.117 268.404 108.055 268.388 107.963 268.388H107.123ZM107.123 272.036H107.969C108.061 272.036 108.121 272.02 108.149 271.988C108.181 271.956 108.197 271.894 108.197 271.802V270.266H106.889V271.802C106.889 271.894 106.905 271.956 106.937 271.988C106.969 272.02 107.031 272.036 107.123 272.036Z" fill="white"/>
<path d="M100.076 292.52H97.8982L97.5922 293.426H96.4342L98.0362 289.004H99.2722L100.904 293.426H100.418L100.076 292.52ZM98.0302 292.13H99.9262L98.9242 289.478L98.0302 292.13ZM105.105 292.712C105.105 292.84 105.097 292.95 105.081 293.042C105.069 293.134 105.039 293.208 104.991 293.264C104.943 293.32 104.871 293.36 104.775 293.384C104.683 293.412 104.559 293.426 104.403 293.426H102.039C101.883 293.426 101.757 293.412 101.661 293.384C101.569 293.36 101.499 293.32 101.451 293.264C101.403 293.208 101.371 293.134 101.355 293.042C101.343 292.95 101.337 292.84 101.337 292.712V289.712C101.337 289.584 101.343 289.476 101.355 289.388C101.371 289.296 101.403 289.22 101.451 289.16C101.499 289.104 101.569 289.064 101.661 289.04C101.757 289.012 101.883 288.998 102.039 288.998H104.403C104.559 288.998 104.683 289.012 104.775 289.04C104.871 289.064 104.943 289.104 104.991 289.16C105.039 289.22 105.069 289.296 105.081 289.388C105.097 289.476 105.105 289.584 105.105 289.712V292.712ZM102.573 292.886C102.573 292.942 102.581 292.98 102.597 293C102.617 293.024 102.655 293.036 102.711 293.036H103.737C103.793 293.036 103.829 293.024 103.845 293C103.865 292.98 103.875 292.942 103.875 292.886V289.538C103.875 289.482 103.865 289.444 103.845 289.424C103.829 289.4 103.793 289.388 103.737 289.388H102.711C102.655 289.388 102.617 289.4 102.597 289.424C102.581 289.444 102.573 289.482 102.573 289.538V292.886ZM105.72 288.998H109.35V289.388H107.184C107.092 289.388 107.03 289.404 106.998 289.436C106.966 289.468 106.95 289.53 106.95 289.622V290.798H108.618C108.77 290.798 108.9 290.806 109.008 290.822C109.12 290.834 109.212 290.864 109.284 290.912C109.352 290.96 109.402 291.032 109.434 291.128C109.47 291.224 109.488 291.352 109.488 291.512V292.754C109.488 292.874 109.48 292.976 109.464 293.06C109.452 293.148 109.424 293.22 109.38 293.276C109.336 293.328 109.27 293.366 109.182 293.39C109.094 293.414 108.978 293.426 108.834 293.426H106.368C106.224 293.426 106.108 293.414 106.02 293.39C105.936 293.366 105.872 293.328 105.828 293.276C105.78 293.22 105.75 293.148 105.738 293.06C105.726 292.976 105.72 292.874 105.72 292.754V292.004H106.95V292.802C106.95 292.894 106.966 292.956 106.998 292.988C107.03 293.02 107.092 293.036 107.184 293.036H108.03C108.122 293.036 108.182 293.02 108.21 292.988C108.242 292.956 108.258 292.894 108.258 292.802V291.542C108.258 291.466 108.252 291.406 108.24 291.362C108.232 291.314 108.216 291.276 108.192 291.248C108.168 291.224 108.134 291.208 108.09 291.2C108.046 291.192 107.99 291.188 107.922 291.188H106.128C106.04 291.188 105.968 291.18 105.912 291.164C105.86 291.148 105.82 291.124 105.792 291.092C105.764 291.06 105.744 291.018 105.732 290.966C105.724 290.914 105.72 290.854 105.72 290.786V288.998Z" fill="white"/>
<path d="M100.015 313.52H97.8366L97.5306 314.426H96.3726L97.9746 310.004H99.2106L100.843 314.426H100.357L100.015 313.52ZM97.9686 313.13H99.8646L98.8626 310.478L97.9686 313.13ZM105.044 313.712C105.044 313.84 105.036 313.95 105.02 314.042C105.008 314.134 104.978 314.208 104.93 314.264C104.882 314.32 104.81 314.36 104.714 314.384C104.622 314.412 104.498 314.426 104.342 314.426H101.978C101.822 314.426 101.696 314.412 101.6 314.384C101.508 314.36 101.438 314.32 101.39 314.264C101.342 314.208 101.31 314.134 101.294 314.042C101.282 313.95 101.276 313.84 101.276 313.712V310.712C101.276 310.584 101.282 310.476 101.294 310.388C101.31 310.296 101.342 310.22 101.39 310.16C101.438 310.104 101.508 310.064 101.6 310.04C101.696 310.012 101.822 309.998 101.978 309.998H104.342C104.498 309.998 104.622 310.012 104.714 310.04C104.81 310.064 104.882 310.104 104.93 310.16C104.978 310.22 105.008 310.296 105.02 310.388C105.036 310.476 105.044 310.584 105.044 310.712V313.712ZM102.512 313.886C102.512 313.942 102.52 313.98 102.536 314C102.556 314.024 102.594 314.036 102.65 314.036H103.676C103.732 314.036 103.768 314.024 103.784 314C103.804 313.98 103.814 313.942 103.814 313.886V310.538C103.814 310.482 103.804 310.444 103.784 310.424C103.768 310.4 103.732 310.388 103.676 310.388H102.65C102.594 310.388 102.556 310.4 102.536 310.424C102.52 310.444 102.512 310.482 102.512 310.538V313.886ZM107.873 310.28L106.073 313.244H107.873V310.28ZM109.613 313.244V313.634H109.103V314.426H107.873V313.634H105.473V313.244L107.459 309.998H109.103V313.244H109.613Z" fill="white"/>
<path d="M100.015 334.52H97.8366L97.5306 335.426H96.3726L97.9746 331.004H99.2106L100.843 335.426H100.357L100.015 334.52ZM97.9686 334.13H99.8646L98.8626 331.478L97.9686 334.13ZM105.044 334.712C105.044 334.84 105.036 334.95 105.02 335.042C105.008 335.134 104.978 335.208 104.93 335.264C104.882 335.32 104.81 335.36 104.714 335.384C104.622 335.412 104.498 335.426 104.342 335.426H101.978C101.822 335.426 101.696 335.412 101.6 335.384C101.508 335.36 101.438 335.32 101.39 335.264C101.342 335.208 101.31 335.134 101.294 335.042C101.282 334.95 101.276 334.84 101.276 334.712V331.712C101.276 331.584 101.282 331.476 101.294 331.388C101.31 331.296 101.342 331.22 101.39 331.16C101.438 331.104 101.508 331.064 101.6 331.04C101.696 331.012 101.822 330.998 101.978 330.998H104.342C104.498 330.998 104.622 331.012 104.714 331.04C104.81 331.064 104.882 331.104 104.93 331.16C104.978 331.22 105.008 331.296 105.02 331.388C105.036 331.476 105.044 331.584 105.044 331.712V334.712ZM102.512 334.886C102.512 334.942 102.52 334.98 102.536 335C102.556 335.024 102.594 335.036 102.65 335.036H103.676C103.732 335.036 103.768 335.024 103.784 335C103.804 334.98 103.814 334.942 103.814 334.886V331.538C103.814 331.482 103.804 331.444 103.784 331.424C103.768 331.4 103.732 331.388 103.676 331.388H102.65C102.594 331.388 102.556 331.4 102.536 331.424C102.52 331.444 102.512 331.482 102.512 331.538V334.886ZM106.979 332.978H108.161V331.622C108.161 331.53 108.145 331.468 108.113 331.436C108.081 331.404 108.019 331.388 107.927 331.388H107.183C107.091 331.388 107.029 331.404 106.997 331.436C106.965 331.468 106.949 331.53 106.949 331.622V332.294H105.719V331.67C105.719 331.55 105.725 331.448 105.737 331.364C105.753 331.276 105.783 331.204 105.827 331.148C105.871 331.096 105.937 331.058 106.025 331.034C106.113 331.01 106.229 330.998 106.373 330.998H108.749C108.893 330.998 109.007 331.01 109.091 331.034C109.179 331.058 109.245 331.096 109.289 331.148C109.333 331.204 109.361 331.276 109.373 331.364C109.385 331.448 109.391 331.55 109.391 331.67V332.684C109.391 332.916 109.317 333.068 109.169 333.14C109.241 333.18 109.301 333.234 109.349 333.302C109.401 333.37 109.427 333.46 109.427 333.572V334.754C109.427 334.874 109.421 334.976 109.409 335.06C109.397 335.148 109.369 335.22 109.325 335.276C109.277 335.328 109.209 335.366 109.121 335.39C109.037 335.414 108.923 335.426 108.779 335.426H106.307C106.163 335.426 106.047 335.414 105.959 335.39C105.875 335.366 105.811 335.328 105.767 335.276C105.719 335.22 105.689 335.148 105.677 335.06C105.665 334.976 105.659 334.874 105.659 334.754V334.13H106.889V334.802C106.889 334.894 106.905 334.956 106.937 334.988C106.969 335.02 107.031 335.036 107.123 335.036H107.963C108.055 335.036 108.117 335.02 108.149 334.988C108.181 334.956 108.197 334.894 108.197 334.802V333.368H106.979V332.978Z" fill="white"/>
<path d="M100.015 355.52H97.8366L97.5306 356.426H96.3726L97.9746 352.004H99.2106L100.843 356.426H100.357L100.015 355.52ZM97.9686 355.13H99.8646L98.8626 352.478L97.9686 355.13ZM105.044 355.712C105.044 355.84 105.036 355.95 105.02 356.042C105.008 356.134 104.978 356.208 104.93 356.264C104.882 356.32 104.81 356.36 104.714 356.384C104.622 356.412 104.498 356.426 104.342 356.426H101.978C101.822 356.426 101.696 356.412 101.6 356.384C101.508 356.36 101.438 356.32 101.39 356.264C101.342 356.208 101.31 356.134 101.294 356.042C101.282 355.95 101.276 355.84 101.276 355.712V352.712C101.276 352.584 101.282 352.476 101.294 352.388C101.31 352.296 101.342 352.22 101.39 352.16C101.438 352.104 101.508 352.064 101.6 352.04C101.696 352.012 101.822 351.998 101.978 351.998H104.342C104.498 351.998 104.622 352.012 104.714 352.04C104.81 352.064 104.882 352.104 104.93 352.16C104.978 352.22 105.008 352.296 105.02 352.388C105.036 352.476 105.044 352.584 105.044 352.712V355.712ZM102.512 355.886C102.512 355.942 102.52 355.98 102.536 356C102.556 356.024 102.594 356.036 102.65 356.036H103.676C103.732 356.036 103.768 356.024 103.784 356C103.804 355.98 103.814 355.942 103.814 355.886V352.538C103.814 352.482 103.804 352.444 103.784 352.424C103.768 352.4 103.732 352.388 103.676 352.388H102.65C102.594 352.388 102.556 352.4 102.536 352.424C102.52 352.444 102.512 352.482 102.512 352.538V355.886ZM105.659 354.56C105.659 354.424 105.683 354.324 105.731 354.26C105.779 354.192 105.891 354.158 106.067 354.158H108.197V352.622C108.197 352.53 108.181 352.468 108.149 352.436C108.121 352.404 108.061 352.388 107.969 352.388H107.123C107.031 352.388 106.969 352.404 106.937 352.436C106.905 352.468 106.889 352.53 106.889 352.622V353.462H105.659V352.67C105.659 352.55 105.665 352.448 105.677 352.364C105.689 352.276 105.719 352.204 105.767 352.148C105.811 352.096 105.875 352.058 105.959 352.034C106.047 352.01 106.163 351.998 106.307 351.998H108.773C108.917 351.998 109.033 352.01 109.121 352.034C109.209 352.058 109.275 352.096 109.319 352.148C109.363 352.204 109.391 352.276 109.403 352.364C109.419 352.448 109.427 352.55 109.427 352.67V354.116C109.427 354.268 109.397 354.378 109.337 354.446C109.277 354.514 109.157 354.548 108.977 354.548H106.889V355.802C106.889 355.894 106.905 355.956 106.937 355.988C106.969 356.02 107.031 356.036 107.123 356.036H109.421V356.426H106.307C106.163 356.426 106.047 356.414 105.959 356.39C105.875 356.366 105.811 356.328 105.767 356.276C105.719 356.22 105.689 356.148 105.677 356.06C105.665 355.976 105.659 355.874 105.659 355.754V354.56Z" fill="white"/>
<path d="M100.979 376.52H98.8005L98.4945 377.426H97.3365L98.9385 373.004H100.175L101.807 377.426H101.321L100.979 376.52ZM98.9325 376.13H100.829L99.8265 373.478L98.9325 376.13ZM106.008 376.712C106.008 376.84 106 376.95 105.984 377.042C105.972 377.134 105.942 377.208 105.894 377.264C105.846 377.32 105.774 377.36 105.678 377.384C105.586 377.412 105.462 377.426 105.306 377.426H102.942C102.786 377.426 102.66 377.412 102.564 377.384C102.472 377.36 102.402 377.32 102.354 377.264C102.306 377.208 102.274 377.134 102.258 377.042C102.246 376.95 102.24 376.84 102.24 376.712V373.712C102.24 373.584 102.246 373.476 102.258 373.388C102.274 373.296 102.306 373.22 102.354 373.16C102.402 373.104 102.472 373.064 102.564 373.04C102.66 373.012 102.786 372.998 102.942 372.998H105.306C105.462 372.998 105.586 373.012 105.678 373.04C105.774 373.064 105.846 373.104 105.894 373.16C105.942 373.22 105.972 373.296 105.984 373.388C106 373.476 106.008 373.584 106.008 373.712V376.712ZM103.476 376.886C103.476 376.942 103.484 376.98 103.5 377C103.52 377.024 103.558 377.036 103.614 377.036H104.64C104.696 377.036 104.732 377.024 104.748 377C104.768 376.98 104.778 376.942 104.778 376.886V373.538C104.778 373.482 104.768 373.444 104.748 373.424C104.732 373.4 104.696 373.388 104.64 373.388H103.614C103.558 373.388 103.52 373.4 103.5 373.424C103.484 373.444 103.476 373.482 103.476 373.538V376.886ZM107.216 373.7L106.442 373.928V373.538L108.446 372.938V377.426H107.216V373.7Z" fill="white"/>
<path d="M152.979 208.52H150.801L150.495 209.426H149.337L150.939 205.004H152.175L153.807 209.426H153.321L152.979 208.52ZM150.933 208.13H152.829L151.827 205.478L150.933 208.13ZM154.834 205.7L154.06 205.928V205.538L156.064 204.938V209.426H154.834V205.7ZM160.463 208.712C160.463 208.84 160.455 208.95 160.439 209.042C160.427 209.134 160.397 209.208 160.349 209.264C160.301 209.32 160.229 209.36 160.133 209.384C160.041 209.412 159.917 209.426 159.761 209.426H157.397C157.241 209.426 157.115 209.412 157.019 209.384C156.927 209.36 156.857 209.32 156.809 209.264C156.761 209.208 156.729 209.134 156.713 209.042C156.701 208.95 156.695 208.84 156.695 208.712V205.712C156.695 205.584 156.701 205.476 156.713 205.388C156.729 205.296 156.761 205.22 156.809 205.16C156.857 205.104 156.927 205.064 157.019 205.04C157.115 205.012 157.241 204.998 157.397 204.998H159.761C159.917 204.998 160.041 205.012 160.133 205.04C160.229 205.064 160.301 205.104 160.349 205.16C160.397 205.22 160.427 205.296 160.439 205.388C160.455 205.476 160.463 205.584 160.463 205.712V208.712ZM157.931 208.886C157.931 208.942 157.939 208.98 157.955 209C157.975 209.024 158.013 209.036 158.069 209.036H159.095C159.151 209.036 159.187 209.024 159.203 209C159.223 208.98 159.233 208.942 159.233 208.886V205.538C159.233 205.482 159.223 205.444 159.203 205.424C159.187 205.4 159.151 205.388 159.095 205.388H158.069C158.013 205.388 157.975 205.4 157.955 205.424C157.939 205.444 157.931 205.482 157.931 205.538V208.886Z" fill="white"/>
<path d="M153.942 229.52H151.764L151.458 230.426H150.3L151.902 226.004H153.138L154.77 230.426H154.284L153.942 229.52ZM151.896 229.13H153.792L152.79 226.478L151.896 229.13ZM155.797 226.7L155.023 226.928V226.538L157.027 225.938V230.426H155.797V226.7ZM158.253 226.7L157.479 226.928V226.538L159.483 225.938V230.426H158.253V226.7Z" fill="white"/>
<path d="M152.979 250.52H150.801L150.495 251.426H149.337L150.939 247.004H152.175L153.807 251.426H153.321L152.979 250.52ZM150.933 250.13H152.829L151.827 247.478L150.933 250.13ZM154.834 247.7L154.06 247.928V247.538L156.064 246.938V251.426H154.834V247.7ZM156.695 249.56C156.695 249.424 156.719 249.324 156.767 249.26C156.815 249.192 156.927 249.158 157.103 249.158H159.233V247.622C159.233 247.53 159.217 247.468 159.185 247.436C159.157 247.404 159.097 247.388 159.005 247.388H158.159C158.067 247.388 158.005 247.404 157.973 247.436C157.941 247.468 157.925 247.53 157.925 247.622V248.462H156.695V247.67C156.695 247.55 156.701 247.448 156.713 247.364C156.725 247.276 156.755 247.204 156.803 247.148C156.847 247.096 156.911 247.058 156.995 247.034C157.083 247.01 157.199 246.998 157.343 246.998H159.809C159.953 246.998 160.069 247.01 160.157 247.034C160.245 247.058 160.311 247.096 160.355 247.148C160.399 247.204 160.427 247.276 160.439 247.364C160.455 247.448 160.463 247.55 160.463 247.67V249.116C160.463 249.268 160.433 249.378 160.373 249.446C160.313 249.514 160.193 249.548 160.013 249.548H157.925V250.802C157.925 250.894 157.941 250.956 157.973 250.988C158.005 251.02 158.067 251.036 158.159 251.036H160.457V251.426H157.343C157.199 251.426 157.083 251.414 156.995 251.39C156.911 251.366 156.847 251.328 156.803 251.276C156.755 251.22 156.725 251.148 156.713 251.06C156.701 250.976 156.695 250.874 156.695 250.754V249.56Z" fill="white"/>
<path d="M152.979 271.52H150.801L150.495 272.426H149.337L150.939 268.004H152.175L153.807 272.426H153.321L152.979 271.52ZM150.933 271.13H152.829L151.827 268.478L150.933 271.13ZM154.834 268.7L154.06 268.928V268.538L156.064 267.938V272.426H154.834V268.7ZM158.015 269.978H159.197V268.622C159.197 268.53 159.181 268.468 159.149 268.436C159.117 268.404 159.055 268.388 158.963 268.388H158.219C158.127 268.388 158.065 268.404 158.033 268.436C158.001 268.468 157.985 268.53 157.985 268.622V269.294H156.755V268.67C156.755 268.55 156.761 268.448 156.773 268.364C156.789 268.276 156.819 268.204 156.863 268.148C156.907 268.096 156.973 268.058 157.061 268.034C157.149 268.01 157.265 267.998 157.409 267.998H159.785C159.929 267.998 160.043 268.01 160.127 268.034C160.215 268.058 160.281 268.096 160.325 268.148C160.369 268.204 160.397 268.276 160.409 268.364C160.421 268.448 160.427 268.55 160.427 268.67V269.684C160.427 269.916 160.353 270.068 160.205 270.14C160.277 270.18 160.337 270.234 160.385 270.302C160.437 270.37 160.463 270.46 160.463 270.572V271.754C160.463 271.874 160.457 271.976 160.445 272.06C160.433 272.148 160.405 272.22 160.361 272.276C160.313 272.328 160.245 272.366 160.157 272.39C160.073 272.414 159.959 272.426 159.815 272.426H157.343C157.199 272.426 157.083 272.414 156.995 272.39C156.911 272.366 156.847 272.328 156.803 272.276C156.755 272.22 156.725 272.148 156.713 272.06C156.701 271.976 156.695 271.874 156.695 271.754V271.13H157.925V271.802C157.925 271.894 157.941 271.956 157.973 271.988C158.005 272.02 158.067 272.036 158.159 272.036H158.999C159.091 272.036 159.153 272.02 159.185 271.988C159.217 271.956 159.233 271.894 159.233 271.802V270.368H158.015V269.978Z" fill="white"/>
<path d="M152.979 292.52H150.801L150.495 293.426H149.337L150.939 289.004H152.175L153.807 293.426H153.321L152.979 292.52ZM150.933 292.13H152.829L151.827 289.478L150.933 292.13ZM154.834 289.7L154.06 289.928V289.538L156.064 288.938V293.426H154.834V289.7ZM158.909 289.28L157.109 292.244H158.909V289.28ZM160.649 292.244V292.634H160.139V293.426H158.909V292.634H156.509V292.244L158.495 288.998H160.139V292.244H160.649Z" fill="white"/>
<path d="M153.04 313.52H150.862L150.556 314.426H149.398L151 310.004H152.236L153.868 314.426H153.382L153.04 313.52ZM150.994 313.13H152.89L151.888 310.478L150.994 313.13ZM154.895 310.7L154.121 310.928V310.538L156.125 309.938V314.426H154.895V310.7ZM156.756 309.998H160.386V310.388H158.22C158.128 310.388 158.066 310.404 158.034 310.436C158.002 310.468 157.986 310.53 157.986 310.622V311.798H159.654C159.806 311.798 159.936 311.806 160.044 311.822C160.156 311.834 160.248 311.864 160.32 311.912C160.388 311.96 160.438 312.032 160.47 312.128C160.506 312.224 160.524 312.352 160.524 312.512V313.754C160.524 313.874 160.516 313.976 160.5 314.06C160.488 314.148 160.46 314.22 160.416 314.276C160.372 314.328 160.306 314.366 160.218 314.39C160.13 314.414 160.014 314.426 159.87 314.426H157.404C157.26 314.426 157.144 314.414 157.056 314.39C156.972 314.366 156.908 314.328 156.864 314.276C156.816 314.22 156.786 314.148 156.774 314.06C156.762 313.976 156.756 313.874 156.756 313.754V313.004H157.986V313.802C157.986 313.894 158.002 313.956 158.034 313.988C158.066 314.02 158.128 314.036 158.22 314.036H159.066C159.158 314.036 159.218 314.02 159.246 313.988C159.278 313.956 159.294 313.894 159.294 313.802V312.542C159.294 312.466 159.288 312.406 159.276 312.362C159.268 312.314 159.252 312.276 159.228 312.248C159.204 312.224 159.17 312.208 159.126 312.2C159.082 312.192 159.026 312.188 158.958 312.188H157.164C157.076 312.188 157.004 312.18 156.948 312.164C156.896 312.148 156.856 312.124 156.828 312.092C156.8 312.06 156.78 312.018 156.768 311.966C156.76 311.914 156.756 311.854 156.756 311.786V309.998Z" fill="white"/>
<path d="M152.979 334.52H150.801L150.495 335.426H149.337L150.939 331.004H152.175L153.807 335.426H153.321L152.979 334.52ZM150.933 334.13H152.829L151.827 331.478L150.933 334.13ZM154.834 331.7L154.06 331.928V331.538L156.064 330.938V335.426H154.834V331.7ZM158.159 331.388C158.067 331.388 158.005 331.404 157.973 331.436C157.941 331.468 157.925 331.53 157.925 331.622V332.876H160.013C160.193 332.876 160.313 332.91 160.373 332.978C160.433 333.046 160.463 333.156 160.463 333.308V334.754C160.463 334.874 160.455 334.976 160.439 335.06C160.427 335.148 160.399 335.22 160.355 335.276C160.311 335.328 160.245 335.366 160.157 335.39C160.069 335.414 159.953 335.426 159.809 335.426H157.343C157.199 335.426 157.083 335.414 156.995 335.39C156.911 335.366 156.847 335.328 156.803 335.276C156.755 335.22 156.725 335.148 156.713 335.06C156.701 334.976 156.695 334.874 156.695 334.754V331.67C156.695 331.55 156.701 331.448 156.713 331.364C156.725 331.276 156.755 331.204 156.803 331.148C156.847 331.096 156.911 331.058 156.995 331.034C157.083 331.01 157.199 330.998 157.343 330.998H159.815C159.959 330.998 160.073 331.01 160.157 331.034C160.245 331.058 160.313 331.096 160.361 331.148C160.405 331.204 160.433 331.276 160.445 331.364C160.457 331.448 160.463 331.55 160.463 331.67V332.276H159.233V331.622C159.233 331.53 159.217 331.468 159.185 331.436C159.153 331.404 159.091 331.388 158.999 331.388H158.159ZM158.159 335.036H159.005C159.097 335.036 159.157 335.02 159.185 334.988C159.217 334.956 159.233 334.894 159.233 334.802V333.266H157.925V334.802C157.925 334.894 157.941 334.956 157.973 334.988C158.005 335.02 158.067 335.036 158.159 335.036Z" fill="white"/>
<path d="M153.16 355.52H150.982L150.676 356.426H149.518L151.12 352.004H152.356L153.988 356.426H153.502L153.16 355.52ZM151.114 355.13H153.01L152.008 352.478L151.114 355.13ZM155.015 352.7L154.241 352.928V352.538L156.245 351.938V356.426H155.015V352.7ZM160.392 351.998V352.478L159.186 354.572V356.3H157.956V354.41L159.03 352.442H156.768V351.998H160.392Z" fill="white"/>
<path d="M152.949 376.52H150.771L150.465 377.426H149.307L150.909 373.004H152.145L153.777 377.426H153.291L152.949 376.52ZM150.903 376.13H152.799L151.797 373.478L150.903 376.13ZM154.804 373.7L154.03 373.928V373.538L156.034 372.938V377.426H154.804V373.7ZM160.487 376.778C160.487 377.03 160.441 377.2 160.349 377.288C160.257 377.38 160.109 377.426 159.905 377.426H157.247C157.127 377.426 157.029 377.41 156.953 377.378C156.881 377.35 156.823 377.31 156.779 377.258C156.735 377.202 156.705 377.138 156.689 377.066C156.673 376.998 156.665 376.922 156.665 376.838V375.59C156.665 375.51 156.675 375.446 156.695 375.398C156.719 375.346 156.749 375.304 156.785 375.272C156.821 375.24 156.859 375.212 156.899 375.188C156.943 375.164 156.985 375.138 157.025 375.11C156.929 375.078 156.855 375.038 156.803 374.99C156.751 374.942 156.725 374.848 156.725 374.708V373.466C156.725 373.298 156.757 373.178 156.821 373.106C156.885 373.034 157.007 372.998 157.187 372.998H159.965C160.145 372.998 160.267 373.034 160.331 373.106C160.395 373.178 160.427 373.298 160.427 373.466V374.708C160.427 374.792 160.419 374.858 160.403 374.906C160.391 374.95 160.373 374.986 160.349 375.014C160.325 375.042 160.293 375.062 160.253 375.074C160.217 375.086 160.175 375.098 160.127 375.11C160.167 375.126 160.207 375.142 160.247 375.158C160.291 375.174 160.331 375.198 160.367 375.23C160.403 375.262 160.431 375.308 160.451 375.368C160.475 375.424 160.487 375.5 160.487 375.596V376.778ZM159.257 375.392C159.257 375.336 159.231 375.306 159.179 375.302H157.997C157.953 375.302 157.925 375.31 157.913 375.326C157.901 375.338 157.895 375.36 157.895 375.392V376.748C157.895 376.78 157.901 376.804 157.913 376.82C157.925 376.832 157.953 376.838 157.997 376.838H159.155C159.199 376.838 159.227 376.832 159.239 376.82C159.251 376.804 159.257 376.78 159.257 376.748V375.392ZM159.197 373.538C159.197 373.478 159.185 373.438 159.161 373.418C159.141 373.398 159.107 373.388 159.059 373.388H158.087C158.035 373.388 157.999 373.4 157.979 373.424C157.963 373.444 157.955 373.474 157.955 373.514V374.816C157.955 374.848 157.961 374.876 157.973 374.9C157.985 374.92 158.013 374.93 158.057 374.93H159.101C159.141 374.93 159.167 374.92 159.179 374.9C159.191 374.876 159.197 374.848 159.197 374.816V373.538Z" fill="white"/>
</svg>
